<!--?xml version="1.0" standalone="no"?-->
              <svg id="sw-js-blob-svg" viewBox="0 0 100 100" xmlns="http://www.w3.org/2000/svg" version="1.1">
                    <defs> 
                        <linearGradient id="sw-gradient" x1="0" x2="1" y1="1" y2="0">
                            <stop id="stop1" stop-color="rgba(220, 38, 38, 1)" offset="0%"></stop>
                            <stop id="stop2" stop-color="rgba(220, 38, 38, 1)" offset="100%"></stop>
                        </linearGradient>
                    </defs>
                <path fill="url(#sw-gradient)" d="M17.1,-29.9C22.9,-26.3,28.9,-23.2,32.9,-18.3C37,-13.4,39.1,-6.7,40.3,0.7C41.6,8.1,41.9,16.3,37.6,20.7C33.3,25.1,24.3,25.8,17.2,28C10.2,30.1,5.1,33.7,-1.4,36.1C-7.9,38.6,-15.8,39.8,-22.6,37.5C-29.4,35.2,-35,29.4,-37.5,22.5C-40,15.7,-39.4,7.8,-39.7,-0.2C-40,-8.2,-41.3,-16.4,-38.5,-22.6C-35.6,-28.8,-28.5,-32.9,-21.4,-35.8C-14.3,-38.7,-7.1,-40.4,-0.7,-39.1C5.7,-37.8,11.3,-33.6,17.1,-29.9Z" width="100%" height="100%" transform="translate(50 50)" stroke-width="0" style="transition: all 0.3s ease 0s;" stroke="url(#sw-gradient)"></path>
              </svg>